<?xml version="1.0" encoding="iso-8859-1"?>
<!-- Generator: Adobe Illustrator 16.0.0, SVG Export Plug-In . SVG Version: 6.00 Build 0)  -->
<!DOCTYPE svg PUBLIC "-//W3C//DTD SVG 1.1//EN" "http://www.w3.org/Graphics/SVG/1.1/DTD/svg11.dtd">
<svg version="1.1" id="Capa_1" xmlns="http://www.w3.org/2000/svg" xmlns:xlink="http://www.w3.org/1999/xlink" x="0px" y="0px"
	 width="516.66px" height="516.659px" viewBox="0 0 516.66 516.659" style="enable-background:new 0 0 516.66 516.659;"
	 xml:space="preserve">
<g>
	<g>
		<path d="M21.304,404.515c-38.725,19.743-16.626,47.361,3.338,64.745c12.838,11.184,32.309,9.838,43.488-2.998l229.197-289.56
			l-35.069-27.401C262.258,149.301,134.391,346.873,21.304,404.515z"/>
		<path d="M515.632,133.785c-49.431-2.391-171.889-93.968-171.889-93.968l-79.469,101.977l149.861,117.078
			C414.136,258.872,528.623,212.562,515.632,133.785z M410.548,241.414l-5.83-4.219c85.895-39.458,92.911-95.251,92.938-95.765
			l6.598,2.566C504.124,146.27,500.216,200.221,410.548,241.414z"/>
	</g>
</g>
<g>
</g>
<g>
</g>
<g>
</g>
<g>
</g>
<g>
</g>
<g>
</g>
<g>
</g>
<g>
</g>
<g>
</g>
<g>
</g>
<g>
</g>
<g>
</g>
<g>
</g>
<g>
</g>
<g>
</g>
</svg>
